<svg width="37" height="26" viewBox="0 0 37 26" fill="none" xmlns="http://www.w3.org/2000/svg">
<path d="M6.48912 7.34912H0V13.9518V18.4137V25.0015H6.49142H23.4473H30.026V18.4183V13.9484V7.35142H23.4473H6.48912V7.34912ZM17.7361 18.2794C17.6374 18.4951 17.4986 18.6856 17.3265 18.8439C17.1544 19.0022 16.9479 19.133 16.7104 19.2317C16.4729 19.3327 16.2125 19.3912 15.9325 19.4072V19.9935H14.6349V19.2317C14.565 19.2007 14.5007 19.172 14.4353 19.1445C14.3676 19.1204 14.3057 19.086 14.2449 19.0573V19.3441H12.9427V17.3972H14.2449C14.355 17.5176 14.464 17.6255 14.5741 17.715C14.682 17.8045 14.7933 17.8813 14.908 17.9364C15.0227 17.9972 15.1501 18.0397 15.2866 18.0649C15.4277 18.0924 15.5872 18.1073 15.7662 18.1073C16.0014 18.1073 16.1964 18.0603 16.3513 17.9639C16.5062 17.8676 16.5842 17.7425 16.5842 17.5876C16.5842 17.4591 16.5441 17.3455 16.4637 17.2492C16.3834 17.1528 16.2802 17.0702 16.1528 17.0013C16.0278 16.9314 15.8889 16.8797 15.7364 16.8373C15.5838 16.7971 15.4335 16.7661 15.2855 16.7409C14.7589 16.6606 14.3378 16.5367 14.0211 16.3692C13.7045 16.2017 13.4636 16.0193 13.2926 15.8196C13.1228 15.6223 13.0104 15.4181 12.9587 15.2127C12.9048 15.0062 12.8784 14.8226 12.8784 14.662C12.8784 14.428 12.9232 14.2042 13.0104 13.992C13.0953 13.7809 13.2169 13.595 13.3752 13.4332C13.5347 13.2657 13.7205 13.1315 13.9328 13.0271C14.1462 12.917 14.3791 12.8435 14.6338 12.8091V12.1953H15.9314V12.9009C16.1264 12.9571 16.2985 13.0294 16.4511 13.1235V12.8435H17.7533V14.7951H16.4419C16.3387 14.6758 16.2354 14.576 16.1368 14.4842C16.0381 14.3924 15.9302 14.319 15.8213 14.2616C15.7111 14.2019 15.5861 14.1572 15.4564 14.1274C15.3222 14.0964 15.165 14.0803 14.986 14.0803C14.7256 14.0803 14.5271 14.1434 14.3883 14.2685C14.2495 14.3901 14.1795 14.5243 14.1795 14.6677C14.1795 15.0716 14.612 15.3355 15.4771 15.4651C16.0174 15.5443 16.4477 15.6785 16.7632 15.8598C17.0833 16.0434 17.3254 16.2407 17.494 16.4541C17.6627 16.6698 17.7671 16.8774 17.8141 17.0885C17.8612 17.2985 17.8841 17.4649 17.8841 17.5922C17.8841 17.8366 17.8348 18.0695 17.7361 18.2794ZM6.27917 23.1692C5.69863 20.9894 4.00063 19.2661 1.83109 18.6512V13.7075C4.00522 13.0959 5.70552 11.3681 6.28146 9.17906H11.4202C9.02695 10.557 7.40926 13.1384 7.40926 16.0938C7.40926 19.1663 9.15889 21.8372 11.7139 23.1681H6.27917V23.1692ZM28.1983 13.7327V18.6294C25.9863 19.2191 24.2482 20.9549 23.6607 23.1692H19.0509C21.6059 21.8407 23.3533 19.1697 23.3533 16.095C23.3533 13.1418 21.7356 10.5593 19.3446 9.18136H23.6562C24.2413 11.4014 25.9817 13.1453 28.1983 13.7327Z" fill="rgb(99, 81, 61)  "/>
<path d="M9.75414 3.72583H3.26501V6.25333H6.49007H9.31816C9.40536 6.02731 9.48452 5.79441 9.54648 5.55692H26.9223C26.9866 5.79441 27.0657 6.02731 27.1529 6.25333H30.0303H31.1306V7.35129V10.0061C31.2442 10.0417 31.352 10.0784 31.4645 10.1071V15.0049C31.352 15.0313 31.2442 15.0703 31.1306 15.1059V18.4204V21.3759H33.299V14.7927V10.3217V3.72583H26.7169H9.75414Z" fill="rgb(99, 81, 61)  "/>
<path d="M30.1301 0H13.1731H6.68164V2.5275H9.90899H12.7348C12.8243 2.30148 12.9023 2.07087 12.9654 1.83109H30.3412C30.4066 2.07087 30.4824 2.30148 30.5695 2.5275H33.4493H34.5472V3.62776V6.28146C34.662 6.31703 34.7687 6.35374 34.8834 6.38472V11.2791C34.7687 11.3101 34.662 11.3445 34.5472 11.3824V14.6958V17.65H36.7133V11.0691V6.59697V0H30.1301Z" fill="rgb(99, 81, 61)  "/>
</svg>
