<svg width="49" height="49" viewBox="0 0 49 49" fill="none"
  xmlns="http://www.w3.org/2000/svg">
  <rect x="1.16669" y="1.49487" width="47" height="47" rx="23.5" fill="#0096D1"/>
  <path d="M18.8542 33.9949V19.9792H14.4948V33.9949H18.8542ZM16.6511 18.1042C18.0573 18.1042 19.1823 16.9324 19.1823 15.5261C19.1823 14.1667 18.0573 13.0417 16.6511 13.0417C15.2917 13.0417 14.1667 14.1667 14.1667 15.5261C14.1667 16.9324 15.2917 18.1042 16.6511 18.1042ZM35.1198 33.9949H35.1667V26.3074C35.1667 22.5574 34.3229 19.6511 29.9167 19.6511C27.8073 19.6511 26.4011 20.823 25.7917 21.9011H25.7448V19.9792H21.5729V33.9949H25.9323V27.0574C25.9323 25.2292 26.2604 23.4949 28.5104 23.4949C30.7604 23.4949 30.8073 25.5574 30.8073 27.198V33.9949H35.1198Z" fill="white"/>
  <rect x="1.16669" y="1.49487" width="47" height="47" rx="23.5" stroke="#0096D1"/>
</svg>
