<svg width="32" height="32" viewBox="0 0 32 32" fill="none" xmlns="http://www.w3.org/2000/svg">
<path d="M12.8069 5.7002L12.4598 5.35307L12.8069 5.70019L14.8336 3.6735C15.465 3.0421 16.5084 3.0421 17.1398 3.6735L19.1665 5.7002C19.3998 5.9335 19.7187 6.12197 20.0319 6.25183C20.3448 6.38158 20.7015 6.47327 21.0267 6.47327H23.8934C24.7906 6.47327 25.5267 7.20944 25.5267 8.10665V10.9733C25.5267 11.2985 25.6184 11.6552 25.7482 11.9681C25.878 12.2813 26.0665 12.6002 26.2998 12.8335L28.3265 14.8602C28.9579 15.4916 28.9579 16.535 28.3265 17.1664L26.2998 19.193L26.6534 19.5466L26.2998 19.193C26.0665 19.4263 25.878 19.7452 25.7482 20.0584C25.6184 20.3714 25.5267 20.728 25.5267 21.0533V23.92C25.5267 24.8172 24.7906 25.5533 23.8934 25.5533H21.0267C20.7014 25.5533 20.3448 25.645 20.0318 25.7748C19.7186 25.9046 19.3998 26.0931 19.1665 26.3264L17.1398 28.3531C16.5084 28.9845 15.465 28.9845 14.8336 28.3531L12.8069 26.3264L12.4534 26.68L12.8069 26.3264C12.5736 26.0931 12.2548 25.9046 11.9415 25.7748C11.6286 25.645 11.2719 25.5533 10.9467 25.5533H8.08003C7.18283 25.5533 6.44669 24.8171 6.44669 23.92V21.0533C6.44669 20.7229 6.35578 20.3633 6.22523 20.0484C6.09583 19.7364 5.90701 19.4188 5.67044 19.1899L3.64692 17.1664C3.01552 16.535 3.01552 15.4916 3.64692 14.8602L3.29337 14.5066L3.64693 14.8602L5.67358 12.8335C5.90688 12.6002 6.09536 12.2813 6.22523 11.9681C6.35499 11.6552 6.44669 11.2985 6.44669 10.9733V8.10665C6.44669 7.20945 7.18285 6.47327 8.08003 6.47327H10.9467C11.2719 6.47327 11.6286 6.38158 11.9415 6.25183C12.2547 6.12197 12.5736 5.93351 12.8069 5.7002Z" fill="url(#paint0_linear_133_1838)" stroke="white"/>
<path d="M20 21.3333C19.2533 21.3333 18.6533 20.7333 18.6533 20C18.6533 19.2666 19.2533 18.6666 19.9867 18.6666C20.72 18.6666 21.32 19.2666 21.32 20C21.32 20.7333 20.7333 21.3333 20 21.3333Z" fill="white"/>
<path d="M12.0134 13.3333C11.2667 13.3333 10.6667 12.7333 10.6667 12C10.6667 11.2666 11.2667 10.6666 12 10.6666C12.7334 10.6666 13.3334 11.2666 13.3334 12C13.3334 12.7333 12.7467 13.3333 12.0134 13.3333Z" fill="white"/>
<path d="M11.9999 21C11.7466 21 11.4932 20.9067 11.2932 20.7067C10.9066 20.32 10.9066 19.68 11.2932 19.2933L19.2932 11.2933C19.6799 10.9066 20.3199 10.9066 20.7066 11.2933C21.0932 11.68 21.0932 12.32 20.7066 12.7067L12.7066 20.7067C12.5066 20.9067 12.2532 21 11.9999 21Z" fill="white"/>
<defs>
<linearGradient id="paint0_linear_133_1838" x1="2.67337" y1="2.69995" x2="29.3" y2="2.69995" gradientUnits="userSpaceOnUse">
<stop stop-color="#3B873E"/>
<stop offset="1" stop-color="#5BAB5E"/>
</linearGradient>
</defs>
</svg>
