<svg width="74" height="75" viewBox="0 0 74 75" fill="none" xmlns="http://www.w3.org/2000/svg">
<path d="M66.4943 29.3184L73.2501 45.1061L66.4943 48.1229L45.5791 57.1732L37.4351 41.3854L37.3425 41.1843L66.4943 29.3184Z" stroke="#0096D1" stroke-width="1.3" stroke-miterlimit="10" stroke-linecap="round" stroke-linejoin="round"/>
<path d="M66.4943 48.1227V60.8937L37.7127 73.363L37.3426 41.888L37.1575 41.6869L37.3426 41.3853H37.4351L45.5791 57.173L66.4943 48.1227Z" stroke="#0096D1" stroke-width="1.3" stroke-miterlimit="10" stroke-linecap="round" stroke-linejoin="round"/>
<path d="M37.3422 41.8884L37.7124 73.3633L8.19043 60.894V48.2236L28.6429 57.1733L37.1571 41.6873L37.3422 41.8884Z" stroke="#0096D1" stroke-width="1.3" stroke-miterlimit="10" stroke-linecap="round" stroke-linejoin="round"/>
<path d="M37.3426 41.3854L37.1575 41.6871L28.6434 57.1732L8.19089 48.2235L1.25 45.1061L8.19089 29.3184L37.3426 41.3854Z" stroke="#0096D1" stroke-width="1.3" stroke-miterlimit="10" stroke-linecap="round" stroke-linejoin="round"/>
<path d="M8.19043 48.2231V60.8936L37.7124 73.3629L66.4939 60.8936V48.1226" stroke="#0096D1" stroke-width="1.3" stroke-miterlimit="2.6131" stroke-linecap="round" stroke-linejoin="round"/>
<path d="M8.19089 29.3181L37.3426 41.3852L37.1575 41.6869L28.6434 57.1729L8.19089 48.2232L1.25 45.1059L8.19089 29.3181Z" stroke="#0096D1" stroke-width="1.3" stroke-miterlimit="2.6131" stroke-linecap="round" stroke-linejoin="round"/>
<path d="M66.4943 29.3181L37.3425 41.1841L37.4351 41.3852L45.5791 57.1729L66.4943 48.1226L73.2501 45.1059L66.4943 29.3181Z" stroke="#0096D1" stroke-width="1.3" stroke-miterlimit="2.6131" stroke-linecap="round" stroke-linejoin="round"/>
<path d="M37.3425 41.8879L37.7127 73.3629" stroke="#0096D1" stroke-width="1.3" stroke-miterlimit="2.6131" stroke-linecap="round" stroke-linejoin="round"/>
<path d="M28.6434 1.36279L1.25 13.4299L8.19089 29.3182L27.3477 20.9718" stroke="#0096D1" stroke-width="1.3" stroke-miterlimit="2.6131" stroke-linecap="round" stroke-linejoin="round"/>
<path d="M45.5792 1.36279L73.2502 13.4299L66.4944 29.3182L45.209 20.2679" stroke="#0096D1" stroke-width="1.3" stroke-miterlimit="2.6131" stroke-linecap="round" stroke-linejoin="round"/>
</svg>
