<svg width="73" height="73" viewBox="0 0 73 73" fill="none" xmlns="http://www.w3.org/2000/svg">
<path d="M54.4976 64.808H19.1717C19.0872 64.808 18.9182 64.808 18.8336 64.7169C9.70639 58.1632 4.21313 47.2403 4.21313 35.4071C4.21313 16.019 18.8336 0.362793 36.7501 0.362793C54.7511 0.362793 69.2871 16.11 69.2871 35.4071C69.2871 47.2403 63.7938 58.1632 54.6666 64.7169C54.7511 64.7169 54.6666 64.808 54.4976 64.808ZM19.4252 63.6246H54.4131C63.2023 57.344 68.442 46.7852 68.442 35.4071C68.442 16.7472 54.3285 1.54612 36.9191 1.54612C19.5943 1.54612 5.48081 16.7472 5.48081 35.4071C5.3963 46.7852 10.636 57.253 19.4252 63.6246Z" fill="#0096D1"/>
<path d="M56.6104 58.9825H17.228C16.89 58.9825 16.7209 58.7094 16.7209 58.3453V42.7801C16.7209 42.507 16.89 42.325 17.059 42.234L30.5809 36.4995C30.7499 36.4084 31.0034 36.4995 31.1724 36.5905L36.7502 42.325L42.7505 36.4995C42.9196 36.3174 43.0886 36.3174 43.3421 36.4084L56.864 42.143C57.033 42.234 57.202 42.416 57.202 42.6891V58.2542C57.1175 58.7094 56.864 58.9825 56.6104 58.9825ZM17.7351 57.7991H56.0189V43.1442L43.0886 37.6828L36.9192 43.5993C36.6657 43.7814 36.4122 43.7814 36.1586 43.5993L30.4963 37.6828L17.6506 43.1442V57.7991H17.7351Z" fill="#0096D1"/>
<path d="M49.9344 58.9822H23.8203C23.4823 58.9822 23.3132 58.7091 23.3132 58.345V48.5144C23.3132 48.1503 23.5668 47.8772 23.8203 47.8772C24.0738 47.8772 24.3274 48.1503 24.3274 48.5144V57.7078H49.3428V48.5144C49.3428 48.1503 49.5963 47.8772 49.8499 47.8772C50.1034 47.8772 50.357 48.1503 50.357 48.5144V58.345C50.526 58.7091 50.2724 58.9822 49.9344 58.9822Z" fill="#0096D1"/>
<path d="M43.4259 45.1465H30.4111C30.0731 45.1465 29.9041 44.8735 29.9041 44.5094V37.0454C29.9041 36.6813 30.1576 36.4082 30.4111 36.4082C30.6646 36.4082 30.9182 36.6813 30.9182 37.0454V43.9632H42.8343V37.0454C42.8343 36.6813 43.0879 36.4082 43.3414 36.4082C43.5949 36.4082 43.8485 36.6813 43.8485 37.0454V44.5094C43.933 44.8735 43.6795 45.1465 43.4259 45.1465Z" fill="#0096D1"/>
<path d="M38.8626 50.0622H34.9751C34.637 50.0622 34.468 49.7891 34.468 49.425V44.5097C34.468 44.1456 34.7216 43.8726 34.9751 43.8726H38.8626C39.2007 43.8726 39.3697 44.1456 39.3697 44.5097V49.425C39.3697 49.7891 39.1162 50.0622 38.8626 50.0622ZM35.4822 48.8789H38.271V45.1469H35.4822V48.8789Z" fill="#0096D1"/>
<path d="M40.4677 58.9824H32.9461C32.7771 58.9824 32.6081 58.8913 32.5236 58.8003C32.4391 58.6183 32.3545 58.4362 32.4391 58.2542L34.4673 49.3338C34.5518 49.0607 34.7209 48.8787 34.9744 48.8787H38.8619C39.1155 48.8787 39.369 49.0607 39.369 49.3338L40.9747 58.2542C40.9747 58.4362 40.9747 58.6182 40.8902 58.7093C40.8057 58.8003 40.6367 58.9824 40.4677 58.9824ZM33.6222 57.799H39.7916L38.4394 50.062H35.397L33.6222 57.799Z" fill="#0096D1"/>
<path d="M37.0878 34.0417C31.4255 34.0417 26.7773 29.0354 26.7773 22.9368C26.7773 16.8381 31.4255 11.8318 37.0878 11.8318C42.75 11.8318 47.3982 16.8381 47.3982 22.9368C47.3982 29.0354 42.75 34.0417 37.0878 34.0417ZM37.0878 13.0151C32.0171 13.0151 27.876 17.4753 27.876 22.9368C27.876 28.3982 32.0171 32.8584 37.0878 32.8584C42.1585 32.8584 46.2995 28.3982 46.2995 22.9368C46.2995 17.4753 42.1585 13.0151 37.0878 13.0151Z" fill="#0096D1"/>
<path d="M44.4405 21.1162C41.9052 21.1162 39.4544 20.297 37.6796 18.8406C37.4261 18.6585 37.4261 18.2944 37.5951 18.0214C37.7641 17.7483 38.1022 17.7483 38.3557 17.9303C40.384 19.5688 43.5109 20.297 46.3843 19.7508C46.7224 19.6598 46.9759 19.9329 47.0604 20.2059C47.1449 20.57 46.8914 20.8431 46.6378 20.9341C45.8772 21.0252 45.2011 21.1162 44.4405 21.1162Z" fill="#0096D1"/>
<path d="M31.9326 20.9342C30.4114 20.9342 28.9747 20.6612 27.6225 20.115C27.369 20.024 27.1999 19.6599 27.2844 19.3868C27.3689 19.1138 27.707 18.9317 27.9605 19.0227C29.1437 19.4778 30.4959 19.7509 31.8481 19.7509C36.3272 19.7509 40.0457 17.0202 40.0457 13.6523C40.0457 13.2882 40.2992 13.0151 40.5528 13.0151C40.8063 13.0151 41.0598 13.2882 41.0598 13.6523C41.1443 17.5663 37.0033 20.9342 31.9326 20.9342Z" fill="#0096D1"/>
<path d="M66.0762 68.8129H7.6787C7.34065 68.8129 7.17163 68.5398 7.17163 68.1757C7.17163 67.8116 7.42516 67.5386 7.6787 67.5386H66.0762C66.4143 67.5386 66.5833 67.8116 66.5833 68.1757C66.5833 68.5398 66.3298 68.8129 66.0762 68.8129Z" fill="#0096D1"/>
<path d="M66.0762 72.3627H7.6787C7.34065 72.3627 7.17163 72.0897 7.17163 71.7256C7.17163 71.3615 7.42516 71.0884 7.6787 71.0884H66.0762C66.4143 71.0884 66.5833 71.3615 66.5833 71.7256C66.5833 72.0897 66.3298 72.3627 66.0762 72.3627Z" fill="#0096D1"/>
</svg>
