<svg width="73" height="73" viewBox="0 0 73 73" fill="none" xmlns="http://www.w3.org/2000/svg">
<path d="M44.0984 62.3503H28.1111C27.4329 62.3503 26.9484 61.8042 26.9484 61.258C26.9484 61.076 27.0453 60.8029 27.1422 60.6208C28.4018 58.1632 29.3707 55.9786 29.8552 53.9761C30.3396 51.8825 30.4365 49.971 30.049 48.1505C26.1733 47.0582 22.6852 44.8737 20.0691 41.8699C17.453 38.8661 15.8058 35.3161 15.4182 31.5841C13.0928 30.8559 11.0581 29.3995 9.60469 27.5791C7.95752 25.4855 7.08545 23.0279 7.08545 20.4792V7.55373C7.08545 6.91656 7.66682 6.46143 8.24817 6.46143H15.3213V1.45509C15.3213 0.817925 15.9027 0.362793 16.484 0.362793H56.0161C56.6944 0.362793 57.1789 0.908949 57.1789 1.45509V6.37043H64.252C64.9302 6.37043 65.4147 6.91653 65.4147 7.46267V20.3881C65.4147 22.9368 64.5427 25.3944 62.7986 27.488C61.3452 29.3085 59.2136 30.6739 56.9851 31.4931C56.5006 35.3161 54.9503 38.866 52.3342 41.7788C49.7181 44.7826 46.23 46.9672 42.3543 48.0595C41.9668 49.971 42.0637 51.9735 42.5481 54.0671C43.0326 56.0696 43.9046 58.1632 45.2611 60.6208C45.4549 60.8939 45.4549 61.167 45.358 61.4401C45.2611 61.7132 45.0673 61.9862 44.7766 62.0772C44.486 62.2593 44.2922 62.3503 44.0984 62.3503ZM8.05437 7.55373V20.3881C8.05437 22.7548 8.82954 24.9393 10.3798 26.7598C11.8332 28.4893 13.771 29.8547 15.9996 30.4918C16.2902 30.5829 16.3871 30.7649 16.484 31.038C16.8716 34.77 18.4219 38.2289 20.9411 41.0506C23.4603 43.9634 26.8515 46.0569 30.7272 47.0582C30.921 47.1492 31.1148 47.3313 31.2117 47.5133C31.6962 49.6069 31.6962 51.7915 31.1148 54.2491C30.6304 56.3427 29.6614 58.6183 28.3049 61.167L44.0984 61.076C42.645 58.5273 41.773 56.3427 41.2885 54.2491C40.7072 51.8825 40.7071 49.6069 41.1916 47.4223C41.1916 47.2403 41.3854 47.0582 41.6761 46.9672C45.4549 45.9659 48.8461 43.8724 51.4622 40.9596C53.9814 38.0469 55.5317 34.5879 55.9193 30.947C55.9193 30.6739 56.1131 30.4918 56.4037 30.4008C58.6323 29.7636 60.5701 28.4893 62.0235 26.6688C63.5738 24.8483 64.3489 22.5727 64.3489 20.2971V7.37167H56.6944C56.3068 7.37167 56.0161 7.09859 56.0161 6.73449V1.27304H16.581V6.73449C16.581 7.09859 16.2903 7.37167 15.9027 7.37167H8.05437V7.55373ZM56.4037 27.1239C56.3068 27.1239 56.21 27.1239 56.1131 27.0329C55.9193 26.9419 55.8224 26.7598 55.8224 26.4868V11.1036C55.8224 10.7395 56.113 10.4665 56.5006 10.4665H60.667C61.0546 10.4665 61.3452 10.7395 61.3452 11.1036V20.0241C61.3452 21.6625 60.8608 23.1188 59.8918 24.4842C59.1167 25.5765 58.0509 26.3957 56.8882 27.0329C56.5975 27.1239 56.5006 27.1239 56.4037 27.1239ZM57.082 11.7408V25.4855C57.7602 25.0304 58.2447 24.4842 58.7292 23.847C59.5043 22.7547 59.9888 21.4804 59.9888 20.1151V11.7408H57.082ZM15.8058 27.1239C15.7089 27.1239 15.612 27.1239 15.5151 27.0329C14.2555 26.3957 13.2866 25.5765 12.5115 24.4842C11.5425 23.2099 11.0581 21.6625 11.0581 20.0241V11.1036C11.0581 10.7395 11.3488 10.4665 11.7363 10.4665H15.9027C16.2903 10.4665 16.581 10.7395 16.581 11.1036V26.4868C16.581 26.6688 16.484 26.8508 16.2902 27.0329C15.9996 27.1239 15.9027 27.1239 15.8058 27.1239ZM12.2208 11.7408V20.1151C12.2208 21.4804 12.6084 22.7547 13.4804 23.847C13.9648 24.4842 14.5462 25.0304 15.1276 25.4855V11.7408H12.2208Z" fill="#0096D1"/>
<path d="M51.9463 69.4501H20.2625C19.8749 69.4501 19.5842 69.177 19.5842 68.8129V61.622C19.5842 61.2579 19.8749 60.9849 20.2625 60.9849H51.9463C52.3339 60.9849 52.6245 61.2579 52.6245 61.622V68.8129C52.6245 69.268 52.3339 69.4501 51.9463 69.4501ZM20.8438 68.2668H51.2681V62.2592H20.8438V68.2668Z" fill="#0096D1"/>
<path d="M48.4591 72.3632H23.8484C23.4609 72.3632 23.1702 72.0901 23.1702 71.726V68.9042C23.1702 68.5401 23.4609 68.2671 23.8484 68.2671H48.4591C48.8466 68.2671 49.1373 68.5401 49.1373 68.9042V71.726C49.0404 72.0901 48.7498 72.3632 48.4591 72.3632ZM24.4298 71.1798H47.7808V69.5414H24.4298V71.1798Z" fill="#0096D1"/>
<path d="M41.6758 34.1329C41.3852 34.1329 41.0945 34.0418 40.9007 33.8597L36.0561 30.5829L31.1146 33.9508C30.6301 34.3149 29.855 34.2239 29.4674 33.6777C29.2736 33.4047 29.1767 33.0405 29.2736 32.6764L31.1146 27.215L26.173 23.8471C25.7855 23.574 25.5917 23.0279 25.7855 22.5728C25.9793 22.1177 26.3668 21.7535 26.9482 21.7535H33.0524L34.8934 16.2921C35.0871 15.837 35.4747 15.4729 36.0561 15.4729C36.5405 15.4729 37.025 15.746 37.2188 16.2011L39.0597 21.6625H45.164C45.6485 21.6625 46.1329 21.9356 46.3267 22.4817C46.5204 22.9368 46.3267 23.483 45.8422 23.7561L40.9007 27.124L42.8386 32.5854C42.9354 32.9495 42.9354 33.3136 42.6448 33.5867C42.451 33.9508 42.0634 34.1329 41.6758 34.1329ZM36.1529 29.2175C36.2498 29.2175 36.4436 29.2175 36.5405 29.3085L41.6758 32.8585L39.6411 27.124C39.5442 26.8509 39.6411 26.5778 39.8349 26.4868L44.9702 23.0279H38.6722C38.3815 23.0279 38.1877 22.8459 38.0908 22.5728L36.1529 16.9293L34.2151 22.5728C34.1182 22.8459 33.9244 23.0279 33.6338 23.0279H27.3358L32.471 26.4868C32.6648 26.6689 32.7617 26.9419 32.6648 27.124L30.727 32.7675L35.8623 29.2175C35.8623 29.2175 35.9592 29.2175 36.1529 29.2175Z" fill="#0096D1"/>
</svg>
