<svg width="74" height="75" viewBox="0 0 74 75" fill="none" xmlns="http://www.w3.org/2000/svg">
<path d="M39.9897 55.8102C40.1748 55.0672 40.545 54.112 42.2111 54.0059C44.4325 54.0059 51.467 56.0224 53.781 57.0838C54.8917 57.6145 55.6321 58.1451 55.8173 58.8881C56.2801 60.2679 52.8554 69.5016 52.3 71.9427C52.0223 73.0041 51.9298 73.5348 51.0967 73.1102C47.9497 71.3059 44.8027 66.1053 41.2855 63.6642C40.1748 62.9212 39.0641 62.3906 38.7864 61.4353C38.7864 61.3292 38.6938 61.1169 38.6938 60.9047C38.7864 59.631 39.712 56.9777 39.9897 55.8102ZM49.3381 60.9047C48.8753 61.5415 48.9679 62.3905 49.5232 62.8151C50.0786 63.3458 50.8191 63.2396 51.1893 62.6028C51.6521 61.966 51.5595 61.1169 51.0042 60.5863C50.4488 60.2679 49.7084 60.374 49.3381 60.9047Z" stroke="#0096D1" stroke-width="1.3" stroke-miterlimit="10" stroke-linecap="round" stroke-linejoin="round"/>
<path d="M24.2547 60.9046C23.8844 60.2678 23.0514 60.1617 22.5886 60.6924C22.0332 61.1169 21.9407 62.0721 22.4035 62.709C22.8663 63.3458 23.6067 63.4519 24.1621 62.9212C24.6249 62.3905 24.7175 61.5415 24.2547 60.9046ZM21.2928 72.0489C20.7374 69.6077 17.3127 60.374 17.7755 58.9942C18.0532 58.2513 18.7011 57.7206 19.8118 57.1899C22.1258 56.1286 29.1603 54.0059 31.3817 54.112C33.0478 54.112 33.3255 55.1733 33.6031 55.9163C33.9734 57.0838 34.8064 59.7372 34.8064 61.1169C34.8064 61.3292 34.8064 61.4353 34.7138 61.5415C34.4361 62.4967 33.3255 63.0274 32.2147 63.7703C28.6975 66.2114 25.5505 71.412 22.4035 73.2163C21.663 73.6409 21.4779 73.1102 21.2928 72.0489Z" stroke="#0096D1" stroke-width="1.3" stroke-miterlimit="10" stroke-linecap="round" stroke-linejoin="round"/>
<path d="M46.0989 42.0128C47.5799 39.3594 53.1334 33.8404 57.5763 31.8238C59.4274 30.9747 61.1861 30.7624 62.2042 31.7176C62.667 32.0361 62.9447 32.4606 63.0372 32.8851C63.4075 29.1704 65.5363 22.9084 67.5726 19.8305C68.4982 18.3446 70.3494 16.4342 71.9229 18.0262C74.422 20.5734 69.9792 39.1471 67.1098 42.968C62.2042 49.5484 57.6688 46.7889 53.6888 57.1901C51.3748 56.1288 44.3403 54.0061 42.1189 54.1122C43.0445 50.7159 44.4329 44.8784 46.0989 42.0128Z" stroke="#0096D1" stroke-width="1.3" stroke-miterlimit="10" stroke-linecap="round" stroke-linejoin="round"/>
<path d="M19.8118 57.1899C15.8318 46.7886 11.2964 49.5481 6.29819 42.9678C3.42887 39.1469 -1.01398 20.5732 1.48512 18.026C3.05862 16.4339 4.90981 18.3443 5.8354 19.8302C7.8717 22.9082 10.0005 29.1702 10.3708 32.8849C10.4633 32.4604 10.741 32.1419 11.2038 31.7174C12.7773 30.3376 15.6467 31.399 18.516 33.3094C22.3109 35.8567 26.1058 39.8898 27.4016 41.9064C29.0677 44.7721 30.5486 50.6095 31.2891 54.0058C29.1603 54.0058 22.1258 56.1285 19.8118 57.1899Z" stroke="#0096D1" stroke-width="1.3" stroke-miterlimit="10" stroke-linecap="round" stroke-linejoin="round"/>
<path d="M55.1692 18.875V25.0309H49.8008C49.8008 21.6345 52.2073 18.875 55.1692 18.875Z" stroke="#0096D1" stroke-width="1.3" stroke-miterlimit="10" stroke-linecap="round" stroke-linejoin="round"/>
<path d="M55.1692 1.36279V7.51866C52.2073 7.51866 49.8008 4.75912 49.8008 1.36279H55.1692Z" stroke="#0096D1" stroke-width="1.3" stroke-miterlimit="10" stroke-linecap="round" stroke-linejoin="round"/>
<path d="M37.1204 15.7973V13.6746C37.398 13.7807 37.5832 13.8868 37.6757 14.0991C37.7683 14.3114 37.8609 14.5236 37.8609 14.7359C37.8609 15.0543 37.7683 15.2666 37.6757 15.3727C37.5832 15.585 37.398 15.6911 37.1204 15.7973Z" stroke="#0096D1" stroke-width="1.3" stroke-miterlimit="10" stroke-linecap="round" stroke-linejoin="round"/>
<path d="M36.4724 10.1721V11.9764C36.2873 11.8703 36.1022 11.7641 36.0096 11.5519C35.917 11.4457 35.8245 11.2335 35.8245 11.0212C35.8245 10.8089 35.917 10.5966 36.0096 10.4905C36.1947 10.3844 36.2873 10.2783 36.4724 10.1721Z" stroke="#0096D1" stroke-width="1.3" stroke-miterlimit="10" stroke-linecap="round" stroke-linejoin="round"/>
<path d="M36.0093 15.2666C35.9167 15.0543 35.8241 14.8421 35.7316 14.5237L34.5283 14.6298C34.6209 15.2666 34.806 15.7973 35.1762 16.2218C35.5465 16.6464 35.9167 16.8586 36.4721 16.8586V17.8139H37.12V16.8586C37.7679 16.7525 38.1381 16.4341 38.5083 16.0096C38.8786 15.585 38.9711 15.0544 38.9711 14.4175C38.9711 13.8869 38.8786 13.3562 38.6009 13.0378C38.3232 12.7194 37.8604 12.401 37.12 12.1887V10.1721C37.3976 10.2783 37.5828 10.5967 37.6753 11.0212L38.786 10.8089C38.6935 10.2782 38.5084 9.85372 38.2307 9.53532C37.953 9.21691 37.5828 9.00464 37.0274 9.00464V8.47397H36.3795V9.00464C35.8241 9.00464 35.4539 9.32305 35.1762 9.64146C34.8985 10.066 34.7134 10.4905 34.7134 11.0212C34.7134 11.5519 34.8985 12.0826 35.1762 12.5071C35.4539 12.9316 35.9167 13.2501 36.4721 13.3562V15.585C36.2869 15.585 36.1944 15.4789 36.0093 15.2666ZM36.8423 6.24512C40.267 6.24512 42.9512 9.42918 42.9512 13.2501C42.9512 17.1771 40.1744 20.255 36.8423 20.255C33.4176 20.255 30.7334 17.0709 30.7334 13.2501C30.7334 9.32305 33.4176 6.24512 36.8423 6.24512Z" stroke="#0096D1" stroke-width="1.3" stroke-miterlimit="10" stroke-linecap="round" stroke-linejoin="round"/>
<path d="M18.5159 1.36279H23.8843C23.8843 4.75912 21.4778 7.51866 18.5159 7.51866V1.36279Z" stroke="#0096D1" stroke-width="1.3" stroke-miterlimit="10" stroke-linecap="round" stroke-linejoin="round"/>
<path d="M36.8426 20.2549C40.2672 20.2549 42.9515 17.0708 42.9515 13.25C42.9515 9.32296 40.1747 6.24502 36.8426 6.24502C33.4179 6.24502 30.7337 9.42909 30.7337 13.25C30.7337 17.0708 33.4179 20.2549 36.8426 20.2549ZM18.5159 7.51866C21.4778 7.51866 23.8843 4.75912 23.8843 1.36279H49.8008C49.8008 4.75912 52.2073 7.51866 55.1692 7.51866V18.8751C52.2073 18.8751 49.8008 21.6347 49.8008 25.031H23.8843C23.8843 21.6347 21.4778 18.8751 18.5159 18.8751V7.51866Z" stroke="#0096D1" stroke-width="1.3" stroke-miterlimit="10" stroke-linecap="round" stroke-linejoin="round"/>
<path d="M18.5159 18.875C21.4778 18.875 23.8843 21.6345 23.8843 25.0309H18.6084H18.5159V18.875V18.875Z" stroke="#0096D1" stroke-width="1.3" stroke-miterlimit="10" stroke-linecap="round" stroke-linejoin="round"/>
<path d="M42.2114 54.006C42.9519 50.7158 44.4329 44.7722 46.0989 41.9066C47.5799 39.2532 53.1334 33.7341 57.5762 31.7176C59.4274 30.8685 61.186 30.6562 62.2042 31.6114C62.667 31.9298 62.9446 32.3544 63.0372 32.7789C64.2405 36.1753 56.5581 40.9514 54.9846 42.0127" stroke="#0096D1" stroke-width="1.3" stroke-miterlimit="2.6131" stroke-linecap="round" stroke-linejoin="round"/>
<path d="M53.781 57.1899C57.761 46.7886 62.2964 49.5481 67.2021 42.9678C70.0714 39.1469 74.5142 20.5732 72.0151 18.026C70.4416 16.4339 68.5904 18.3443 67.6649 19.8302C65.6286 22.9082 63.4071 29.1702 63.1295 32.8849" stroke="#0096D1" stroke-width="1.3" stroke-miterlimit="2.6131" stroke-linecap="round" stroke-linejoin="round"/>
<path d="M53.781 57.1899C54.8917 57.7206 55.6321 58.2513 55.8173 58.9942C56.2801 60.374 52.8554 69.6078 52.3 72.0489C52.0223 73.1102 51.9298 73.6409 51.0967 73.2164C47.9497 71.4121 44.8027 66.2114 41.2855 63.7703C40.1748 63.0274 39.0641 62.4967 38.7864 61.5415C38.7864 61.4353 38.6938 61.2231 38.6938 61.0108C38.6938 59.631 39.6194 56.9777 39.9897 55.8102C40.1748 55.0672 40.545 54.112 42.2111 54.0059C44.4325 54.0059 51.467 56.1286 53.781 57.1899Z" stroke="#0096D1" stroke-width="1.3" stroke-miterlimit="2.6131" stroke-linecap="round" stroke-linejoin="round"/>
<path d="M49.3378 60.9046C49.8006 60.2678 50.5411 60.1616 51.0965 60.6923C51.6518 61.1169 51.7444 62.0721 51.2816 62.7089C50.9113 63.3457 50.0783 63.4518 49.6155 62.9212C48.9676 62.3905 48.875 61.5414 49.3378 60.9046Z" stroke="#0096D1" stroke-width="1.3" stroke-miterlimit="2.6131" stroke-linecap="round" stroke-linejoin="round"/>
<path d="M10.463 32.885C9.25974 36.2813 16.9421 41.0574 18.5156 42.1188" stroke="#0096D1" stroke-width="1.3" stroke-miterlimit="2.6131" stroke-linecap="round" stroke-linejoin="round"/>
<path d="M31.3812 54.0057C30.5482 50.7155 29.1598 44.772 27.4937 41.9063C26.2905 39.7836 22.403 35.7504 18.6081 33.3093C15.7387 31.3989 12.8694 30.3375 11.2959 31.7173C10.8331 32.0357 10.5554 32.4603 10.4629 32.8848" stroke="#0096D1" stroke-width="1.3" stroke-miterlimit="2.6131" stroke-linecap="round" stroke-linejoin="round"/>
<path d="M19.8118 57.1899C15.8318 46.7886 11.2964 49.5481 6.29819 42.9678C3.42887 39.1469 -1.01398 20.5732 1.48512 18.026C3.05862 16.4339 4.90981 18.3443 5.8354 19.8302C7.8717 22.9082 10.0005 29.1702 10.3708 32.8849" stroke="#0096D1" stroke-width="1.3" stroke-miterlimit="2.6131" stroke-linecap="round" stroke-linejoin="round"/>
<path d="M19.8118 57.1899C18.7011 57.7206 17.9607 58.2513 17.7755 58.9942C17.3127 60.374 20.7374 69.6077 21.2928 72.0489C21.5705 73.1102 21.663 73.6409 22.496 73.2163C25.6431 71.412 28.7901 66.2114 32.3073 63.7703C33.418 63.0274 34.5287 62.4967 34.8064 61.5415C34.8064 61.4353 34.8989 61.2231 34.8989 61.1169C34.8989 59.7372 33.9734 57.0838 33.6957 55.9163C33.418 55.1733 33.1403 54.2181 31.4743 54.112C29.1603 54.0059 22.1258 56.1286 19.8118 57.1899Z" stroke="#0096D1" stroke-width="1.3" stroke-miterlimit="2.6131" stroke-linecap="round" stroke-linejoin="round"/>
<path d="M24.2547 60.9046C23.8844 60.2678 23.0514 60.1616 22.5886 60.6923C22.0333 61.1169 21.9407 62.0721 22.4035 62.7089C22.8663 63.3457 23.6068 63.4518 24.1621 62.9212C24.6249 62.3905 24.7175 61.5414 24.2547 60.9046Z" stroke="#0096D1" stroke-width="1.3" stroke-miterlimit="2.6131" stroke-linecap="round" stroke-linejoin="round"/>
<path d="M18.5159 18.875V7.51855" stroke="#0096D1" stroke-width="1.3" stroke-miterlimit="10" stroke-linecap="round" stroke-linejoin="round"/>
<path d="M49.8013 25.031H23.8848" stroke="#0096D1" stroke-width="1.3" stroke-miterlimit="10" stroke-linecap="round" stroke-linejoin="round"/>
<path d="M55.1694 7.51855V18.875" stroke="#0096D1" stroke-width="1.3" stroke-miterlimit="10" stroke-linecap="round" stroke-linejoin="round"/>
<path d="M23.8848 1.36279H49.8013" stroke="#0096D1" stroke-width="1.3" stroke-miterlimit="10" stroke-linecap="round" stroke-linejoin="round"/>
<path d="M49.8008 1.36279H55.1692V7.51866C52.2073 7.51866 49.8008 4.75912 49.8008 1.36279Z" stroke="#0096D1" stroke-width="1.3" stroke-miterlimit="10" stroke-linecap="round" stroke-linejoin="round"/>
<path d="M23.8843 1.36279H18.5159V7.51866C21.4778 7.51866 23.8843 4.75912 23.8843 1.36279Z" stroke="#0096D1" stroke-width="1.3" stroke-miterlimit="10" stroke-linecap="round" stroke-linejoin="round"/>
<path d="M23.8843 25.0309H18.6084H18.5159V18.875C21.4778 18.875 23.8843 21.6345 23.8843 25.0309Z" stroke="#0096D1" stroke-width="1.3" stroke-miterlimit="10" stroke-linecap="round" stroke-linejoin="round"/>
<path d="M49.8008 25.0309H55.1692V18.875C52.2073 18.875 49.8008 21.6345 49.8008 25.0309Z" stroke="#0096D1" stroke-width="1.3" stroke-miterlimit="10" stroke-linecap="round" stroke-linejoin="round"/>
<path d="M36.8423 6.24512C40.267 6.24512 42.9512 9.42918 42.9512 13.2501C42.9512 17.1771 40.1744 20.255 36.8423 20.255C33.4176 20.255 30.7334 17.0709 30.7334 13.2501C30.7334 9.32305 33.4176 6.24512 36.8423 6.24512Z" stroke="#0096D1" stroke-width="1.3" stroke-miterlimit="10" stroke-linecap="round" stroke-linejoin="round"/>
</svg>
