<svg width="38" height="25" viewBox="0 0 38 25" fill="none" xmlns="http://www.w3.org/2000/svg">
<path d="M10.1262 10.8398C9.41437 10.8398 8.86872 11.0721 8.86872 11.0721L8.71802 11.9805C8.71802 11.9805 9.16812 11.7947 9.84967 11.7947C10.2365 11.7947 10.5191 11.8384 10.5191 12.1574C10.5191 12.3513 10.4848 12.423 10.4848 12.423C10.4848 12.423 10.18 12.3978 10.0387 12.3978C9.14054 12.3978 8.19727 12.7857 8.19727 13.9598C8.19727 14.8846 8.81557 15.0956 9.19974 15.0956C9.93243 15.0956 10.2486 14.6134 10.2648 14.6121L10.2305 15.015H11.1448L11.5525 12.1123C11.5519 10.8795 10.4935 10.8398 10.1262 10.8398ZM9.61352 14.2125C9.29125 14.2125 9.20715 13.9632 9.20715 13.8143C9.20715 13.5261 9.36122 13.1791 10.1222 13.1791C10.2998 13.1798 10.3186 13.1983 10.3482 13.2037C10.3684 13.3813 10.2392 14.2125 9.61352 14.2125Z" fill="rgb(99, 81, 61)  "/>
<path d="M13.4292 11.8095C13.5752 11.8095 14.1383 11.8566 14.1383 11.8566L14.2695 10.9264C14.2695 10.9264 13.9048 10.8438 13.3114 10.8438C12.5431 10.8438 11.764 11.1552 11.764 12.22C11.764 13.4276 13.0638 13.3046 13.0638 13.8141C13.0638 14.1529 12.7005 14.1809 12.4206 14.1809C11.9355 14.1809 11.4996 14.0129 11.4982 14.0197L11.3596 14.9425C11.3845 14.9493 11.6536 15.0709 12.5249 15.0709C12.7584 15.0709 14.0952 15.1323 14.0952 13.7315C14.0952 12.4215 12.858 12.6803 12.858 12.1538C12.858 11.8915 13.0591 11.8095 13.4292 11.8095Z" fill="rgb(99, 81, 61)  "/>
<path d="M15.6125 11.9385H16.1622L16.2947 10.9467H15.7766L15.8823 10.332H14.8441C14.8213 10.3546 14.2312 13.799 14.2312 14.217C14.2312 14.8392 14.575 15.1151 15.0588 15.1103C15.4375 15.1076 15.7329 15.001 15.8372 14.9717L15.967 14.0756C15.8957 14.0756 15.7914 14.107 15.6993 14.107C15.338 14.107 15.2983 13.911 15.3211 13.7669L15.6125 11.9385Z" fill="rgb(99, 81, 61)  "/>
<path d="M19.9642 6.1875H18.1113C17.8623 6.529 17.6282 6.89236 17.4163 7.24752H20.7218C20.4923 6.87733 20.2387 6.52354 19.9642 6.1875Z" fill="rgb(99, 81, 61)  "/>
<path d="M34.4215 18.1093C34.4013 18.0786 34.3845 18.0554 34.3711 18.041C34.3637 18.0342 34.3543 18.0267 34.3421 18.0233C34.3711 18.0212 34.3953 18.0103 34.4128 17.9919C34.4296 17.9734 34.439 17.9516 34.439 17.9263C34.439 17.9085 34.4336 17.8915 34.4236 17.8757C34.4135 17.86 34.3987 17.8484 34.3805 17.8423C34.3637 17.8354 34.3347 17.832 34.295 17.832H34.178V18.1769H34.2331V18.0308H34.2648C34.2836 18.0308 34.2991 18.0349 34.3078 18.0431C34.322 18.0547 34.3421 18.0813 34.3657 18.123L34.3953 18.1776H34.4632L34.4215 18.1093ZM34.2991 17.985H34.2318V17.8812H34.295C34.3213 17.8812 34.3388 17.8833 34.3489 17.8874C34.3596 17.8915 34.3664 17.8976 34.3724 17.9051C34.3778 17.9133 34.3805 17.9222 34.3805 17.9317C34.3805 17.9475 34.3751 17.9611 34.3637 17.9707C34.3522 17.9796 34.33 17.985 34.2991 17.985Z" fill="rgb(99, 81, 61)  "/>
<path d="M21.2834 8.28125H16.8382C16.5543 8.82697 16.3659 9.2395 16.3127 9.34195H21.7046C21.5828 8.97723 21.4429 8.62412 21.2834 8.28125Z" fill="rgb(99, 81, 61)  "/>
<path d="M6.92457 10L5.90123 13.0803L5.84808 10H4.33293L3.50269 15.0194H4.50449L5.13626 11.2356L5.2291 15.0194H5.94429L7.27847 11.2356L6.68707 15.0194H7.7501L8.5689 10H6.92457Z" fill="rgb(99, 81, 61)  "/>
<path d="M26.9586 10.8398C26.2454 10.8398 25.7005 11.0721 25.7005 11.0721L25.5491 11.9805C25.5491 11.9805 25.9998 11.7947 26.6807 11.7947C27.0676 11.7947 27.3508 11.8384 27.3508 12.1574C27.3508 12.3513 27.3152 12.423 27.3152 12.423C27.3152 12.423 27.0111 12.3978 26.8684 12.3978C25.9709 12.3978 25.0283 12.7857 25.0283 13.9598C25.0283 14.8846 25.6473 15.0956 26.0308 15.0956C26.7628 15.0956 27.079 14.6134 27.0958 14.6121L27.0615 15.015H27.9752L28.3829 12.1123C28.3849 10.8795 27.3259 10.8398 26.9586 10.8398ZM26.4473 14.2125C26.1243 14.2125 26.0409 13.9632 26.0409 13.8143C26.0409 13.5261 26.195 13.1791 26.9559 13.1791C27.1329 13.1798 27.1517 13.1983 27.182 13.2037C27.2015 13.3813 27.0716 14.2125 26.4473 14.2125Z" fill="rgb(99, 81, 61)  "/>
<path d="M34.4545 14.555C34.4269 14.5031 34.3865 14.4635 34.3361 14.4362C34.2863 14.4082 34.2352 14.3945 34.1813 14.3945C34.1295 14.3952 34.0777 14.4089 34.0266 14.4362C33.9761 14.4635 33.9371 14.5031 33.9088 14.555C33.8806 14.6063 33.8665 14.6595 33.8665 14.7149C33.8665 14.7702 33.8806 14.8228 33.9088 14.8733C33.9364 14.9239 33.9754 14.9642 34.0252 14.9928C34.0757 15.0208 34.1275 15.0352 34.1813 15.0352C34.2365 15.0352 34.289 15.0208 34.3381 14.9928C34.3879 14.9642 34.4269 14.9239 34.4545 14.8733C34.4834 14.8228 34.4962 14.7702 34.4962 14.7149C34.4962 14.6582 34.4827 14.6049 34.4545 14.555ZM34.4108 14.8467C34.3879 14.889 34.3556 14.9211 34.3132 14.9464C34.2715 14.9696 34.2284 14.9819 34.1833 14.9819C34.1376 14.9819 34.0939 14.9696 34.0528 14.9464C34.0104 14.9225 33.9788 14.8897 33.9546 14.8467C33.9304 14.8036 33.9196 14.7599 33.9196 14.7142C33.9196 14.6684 33.931 14.624 33.9559 14.581C33.9795 14.5386 34.0111 14.5059 34.0542 14.482C34.0972 14.4581 34.1396 14.4478 34.1833 14.4478C34.2271 14.4478 34.2701 14.4587 34.3112 14.482C34.3542 14.5059 34.3859 14.538 34.4094 14.581C34.433 14.624 34.4457 14.6684 34.4457 14.7142C34.4457 14.7599 34.4343 14.8043 34.4108 14.8467Z" fill="rgb(99, 81, 61)  "/>
<path d="M34.2882 14.8281C34.2687 14.796 34.2512 14.7734 34.2384 14.7598C34.2303 14.7523 34.2216 14.7461 34.2095 14.742C34.2384 14.74 34.2619 14.729 34.2794 14.7106C34.2962 14.6928 34.3063 14.6696 34.3063 14.645C34.3063 14.628 34.301 14.6102 34.2902 14.5945C34.2794 14.5795 34.2653 14.5679 34.2485 14.561C34.2317 14.5542 34.2021 14.5508 34.1624 14.5508H34.0439V14.895H34.0991V14.7489H34.1307C34.1502 14.7489 34.1657 14.753 34.1751 14.7605C34.1893 14.7728 34.2081 14.7987 34.233 14.8417L34.2619 14.8957H34.3299L34.2882 14.8281ZM34.1671 14.7017H34.1005V14.5972H34.1624C34.1893 14.5972 34.2068 14.5993 34.2175 14.6027C34.2263 14.6075 34.2343 14.6123 34.2397 14.6211C34.2458 14.63 34.2485 14.6375 34.2485 14.6491C34.2485 14.6642 34.2424 14.6771 34.2323 14.6867C34.2195 14.6983 34.1987 14.7017 34.1671 14.7017Z" fill="rgb(99, 81, 61)  "/>
<path d="M30.4869 10.8789C30.022 10.8789 29.6769 11.523 29.6769 11.523L29.7697 10.9308H28.8022L28.1543 15.0165H29.22C29.5235 13.2708 29.5786 11.8549 30.2992 12.1138C30.4264 11.439 30.5488 11.1774 30.6867 10.8926C30.6867 10.8932 30.6221 10.8789 30.4869 10.8789Z" fill="rgb(99, 81, 61)  "/>
<path d="M33.1647 10.002L32.9407 11.4125C32.9407 11.4125 32.5504 10.864 31.9382 10.864C30.9862 10.8647 30.1936 12.0292 30.1936 13.3665C30.1936 14.2305 30.6168 15.0768 31.4807 15.0768C32.103 15.0768 32.4475 14.6362 32.4475 14.6362L32.4024 15.0126H33.4123L34.2062 10L33.1647 10.002ZM31.848 14.0523C31.4739 14.0523 31.299 13.734 31.299 13.234C31.299 12.4165 31.6603 11.8776 32.1172 11.8776C32.4899 11.8783 32.6816 12.1385 32.6816 12.7518C32.6816 13.3085 32.4105 14.0523 31.848 14.0523Z" fill="rgb(99, 81, 61)  "/>
<path d="M37.0217 0H0.978258C0.437323 0 0 0.444635 0 0.993088V24.0069C0 24.5554 0.437323 25 0.978258 25H37.0217C37.5627 25 38 24.5554 38 24.0069V0.993088C38 0.444635 37.5627 0 37.0217 0ZM34.5882 18.1536C34.56 18.2055 34.5216 18.2451 34.4718 18.2731C34.422 18.3011 34.3695 18.3154 34.3157 18.3154C34.2606 18.3154 34.2081 18.3011 34.1583 18.2731C34.1092 18.2451 34.0701 18.2055 34.0412 18.1536C34.0136 18.1037 33.9995 18.0504 33.9995 17.9951C33.9995 17.9398 34.0136 17.8872 34.0419 17.8353C34.0695 17.7834 34.1098 17.7444 34.1596 17.7164C34.2101 17.6898 34.2612 17.6755 34.315 17.6755C34.3682 17.6755 34.4193 17.6898 34.4691 17.7164C34.5196 17.7444 34.5593 17.7834 34.5869 17.8353C34.6151 17.8872 34.6286 17.9405 34.6286 17.9951C34.6286 18.0498 34.6165 18.1051 34.5882 18.1536ZM35.2933 12.5003C35.2947 17.9678 30.9308 22.4019 25.5444 22.4032C23.0254 22.4039 20.7284 21.4347 18.998 19.8426C17.2675 21.432 14.9753 22.4005 12.4603 22.4005C7.07723 22.4005 2.70804 17.9657 2.70804 12.5003C2.70804 7.0568 7.04292 2.63503 12.3978 2.59951C12.4186 2.59951 12.4395 2.59951 12.4603 2.59951C14.9753 2.59951 17.2682 3.56801 18.9987 5.15736C20.7284 3.56733 23.0227 2.59815 25.5397 2.59746C30.9261 2.59542 35.2933 7.02743 35.2947 12.4956C35.2933 12.4969 35.2933 12.4976 35.2933 12.5003Z" fill="rgb(99, 81, 61)  "/>
<path d="M17.9998 18.7656C18.3086 19.1495 18.6356 19.5156 18.9969 19.8475C19.0049 19.84 19.0137 19.8332 19.0217 19.8263C19.0217 19.8263 19.0211 19.8263 19.0211 19.8256H19.0231C19.3783 19.4971 19.71 19.1433 20.0135 18.7656H17.9998Z" fill="rgb(99, 81, 61)  "/>
<path d="M19.3278 13.3385C19.3278 13.3385 19.4644 12.6555 19.4644 12.3775C19.4644 11.6829 19.124 10.8359 17.9842 10.8359C16.94 10.8366 16.167 11.9786 16.167 13.2695C16.167 14.7591 17.1352 15.1129 17.9607 15.1129C18.7223 15.1129 19.0574 14.9394 19.0574 14.9394L19.2404 13.9231C19.2404 13.9231 18.6611 14.1827 18.1376 14.1827C17.0228 14.1827 17.2179 13.3385 17.2179 13.3385H19.3278ZM17.9876 11.7819C18.5736 11.7819 18.4653 12.4506 18.4653 12.5038H17.3128C17.3128 12.4349 17.4218 11.7819 17.9876 11.7819Z" fill="rgb(99, 81, 61)  "/>
<path d="M24.1972 10.9721C24.7254 10.9721 25.1499 11.2733 25.1499 11.2733L25.3195 10.1566C25.3195 10.1566 24.6911 9.89844 24.1501 9.89844C22.9519 9.89844 21.7859 10.9544 21.7859 12.9371C21.7859 14.2519 22.415 15.12 23.6543 15.12C24.0041 15.12 24.5626 14.9759 24.5626 14.9759L24.7482 13.8257C24.7482 13.8257 24.2396 14.0846 23.8897 14.0846C23.1524 14.0839 22.857 13.5129 22.857 12.9009C22.857 11.6558 23.4908 10.9721 24.1972 10.9721Z" fill="rgb(99, 81, 61)  "/>
<path d="M16.6975 16.6797C16.8664 17.0478 17.0628 17.3982 17.2734 17.7397H20.7337C20.9436 17.3996 21.1326 17.0458 21.3015 16.6797H16.6975Z" fill="rgb(99, 81, 61)  "/>
<path d="M21.7674 10.8985C21.3025 10.8985 20.958 11.5426 20.958 11.5426L21.0515 10.9504H20.0847L19.4368 15.0362H20.5025C20.8046 13.2911 20.8611 11.8745 21.5817 12.1334C21.7082 11.4579 21.8299 11.1963 21.9679 10.9108C21.9679 10.9108 21.9033 10.8972 21.7674 10.8985Z" fill="rgb(99, 81, 61)  "/>
</svg>
