<svg width="36" height="25" viewBox="0 0 36 25" fill="none" xmlns="http://www.w3.org/2000/svg">
<path d="M33.669 0H2.04495C0.916703 0 0 0.916703 0 2.04495V22.955C0 24.0833 0.916703 25 2.04495 25H33.669C34.7973 25 35.714 24.0833 35.714 22.955V2.04275C35.714 0.916703 34.7973 0 33.669 0ZM33.6161 22.9L2.09784 22.9528L2.04495 2.09564L33.6161 2.04275V22.9Z" fill="white"/>
<path d="M5.07513 9.60702L6.13507 17.2007H8.73753L13.5899 7.79785H10.8552L8.79483 12.1588C8.50395 12.778 8.25054 13.3377 8.03238 13.8512C7.99271 13.3157 7.94864 12.7956 7.89575 12.2646L7.47927 7.80006H3.31885L7.64454 11.2223L5.07513 9.60702Z" fill="white"/>
<path d="M15.4585 17.2007L17.2412 7.79785H14.793L13.0081 17.2007H15.4585Z" fill="white"/>
<path d="M16.8931 16.6497C17.466 17.0794 18.4753 17.335 19.5925 17.335C21.9085 17.335 23.4642 16.0261 23.4642 14.0803C23.4642 13.0159 22.8428 12.1719 21.5669 11.5042C20.853 11.1032 20.4188 10.8343 20.4188 10.495C20.4188 10.1777 20.7516 9.8361 21.5405 9.8361C22.3095 9.8361 22.8957 10.138 23.0081 10.1975L23.2858 10.3495L24.068 8.25611L23.8631 8.14152C23.2769 7.81759 22.5497 7.66113 21.6397 7.66113C19.4228 7.66113 17.8737 8.95686 17.8737 10.8123C17.8737 12.1565 18.9314 12.9035 19.8613 13.406C20.734 13.8599 20.9058 14.1177 20.9058 14.4108C20.9058 14.9749 20.2977 15.1755 19.7754 15.1755C19.0945 15.1755 18.3849 14.9837 17.8274 14.6488L17.5519 14.4857L16.7234 16.5263L16.8931 16.6497Z" fill="white"/>
<path d="M25.8264 17.2007L26.8775 14.9023H28.9974L29.1825 17.2007H31.7255L30.6237 7.79785H27.7788L23.2041 17.2007H25.8264ZM28.3826 11.3919C28.4796 11.1804 28.5787 10.938 28.6801 10.689C28.6977 10.9116 28.7131 11.1209 28.7264 11.3016L28.8696 12.908H27.6796L28.3826 11.3919Z" fill="white"/>
</svg>
