<svg width="23" height="25" viewBox="0 0 23 25" fill="none" xmlns="http://www.w3.org/2000/svg">
<path d="M16.4506 3.49704C16.2709 3.49704 16.0935 3.5064 15.9175 3.52122V1.94586C15.9175 0.872895 15.0446 0 13.9716 0H1.94586C0.872895 0 0 0.872895 0 1.94586V23.0541C0 24.1271 0.872895 25 1.94586 25H13.9716C15.0446 25 15.9175 24.1271 15.9175 23.0541V16.0564C16.0945 16.0714 16.2722 16.0799 16.4506 16.0799C19.9197 16.0799 22.7421 13.2576 22.7421 9.7885C22.742 6.31941 19.9197 3.49704 16.4506 3.49704ZM6.33946 1.86131H9.15394C9.49997 1.86131 9.78054 2.14188 9.78054 2.48791C9.78054 2.83394 9.49997 3.11451 9.15394 3.11451H6.33946C5.99342 3.11451 5.71285 2.83394 5.71285 2.48791C5.71285 2.14188 5.99335 1.86131 6.33946 1.86131ZM8.58535 22.4606C8.58535 22.8066 8.30478 23.0872 7.95875 23.0872C7.61271 23.0872 7.33214 22.8066 7.33214 22.4606V21.8339H8.58535V22.4606ZM14.6643 20.5807H1.25321V4.88249C1.25321 4.50056 1.56393 4.18984 1.94586 4.18984H13.588C11.5547 5.23339 10.1593 7.35013 10.1593 9.7885C10.1593 10.5338 10.2885 11.2615 10.5436 11.9554L9.51272 16.0201C9.44888 16.272 9.52231 16.5389 9.70601 16.7226C9.846 16.8626 10.0342 16.9385 10.2273 16.9385C10.2876 16.9385 10.3485 16.931 10.4085 16.9159L14.6644 15.8366V20.5807H14.6643ZM16.4506 14.6055C15.9381 14.6055 15.431 14.5241 14.9435 14.3636C14.8104 14.3197 14.6676 14.3148 14.5318 14.3492L11.2462 15.1824L12.0308 12.0889C12.0698 11.9351 12.0581 11.7728 11.9975 11.6261C11.756 11.0421 11.6337 10.4238 11.6337 9.7885C11.6337 7.13237 13.7946 4.9714 16.4506 4.9714C19.1068 4.9714 21.2677 7.13229 21.2677 9.7885C21.2677 12.4446 19.1068 14.6055 16.4506 14.6055Z" fill="white"/>
<path d="M16.5676 9.08242C15.8133 8.85389 15.6707 8.75245 15.6707 8.44394C15.6707 8.14141 16.1686 8.06076 16.4631 8.06076C16.7465 8.06076 17.0836 8.15069 17.2831 8.27941C17.3252 8.30661 17.3764 8.31597 17.4253 8.30543C17.4743 8.29489 17.5172 8.26533 17.5444 8.22323L17.9341 7.61985C17.9613 7.57776 17.9706 7.52652 17.9602 7.4775C17.9495 7.42848 17.92 7.38557 17.8779 7.35837C17.6381 7.20349 17.335 7.08598 17.011 7.02082V6.42444C17.011 6.32005 16.9265 6.23543 16.822 6.23543L16.1036 6.23535C16.0535 6.23535 16.0054 6.25533 15.97 6.29071C15.9344 6.32617 15.9145 6.37424 15.9145 6.42436L15.9145 7.01639C15.0947 7.18115 14.5743 7.72829 14.5743 8.44394C14.5744 9.62432 15.5826 9.92958 16.2497 10.1317C16.9843 10.3542 17.0883 10.4505 17.0864 10.6915C17.0864 10.7523 17.0722 10.8242 16.968 10.8963C16.8323 10.9902 16.6008 11.0443 16.3326 11.0445C16.3313 11.0445 16.3298 11.0445 16.3283 11.0445C15.9798 11.044 15.5887 10.8873 15.3766 10.6632C15.305 10.5874 15.1853 10.5841 15.1094 10.6559L14.5877 11.1495C14.5119 11.2213 14.5085 11.341 14.5802 11.4168C14.91 11.7653 15.3994 12.0157 15.9145 12.1049V12.6808C15.9145 12.7852 15.9991 12.8698 16.1035 12.8698H16.8219C16.9262 12.8698 17.0109 12.7852 17.0109 12.6808V12.0581C17.2305 12.0002 17.4255 11.913 17.5918 11.7979C17.9728 11.5343 18.1827 11.1424 18.1826 10.696C18.1921 9.57434 17.2145 9.27828 16.5676 9.08242Z" fill="white"/>
</svg>
